<?xml version="1.0" encoding="iso-8859-1"?>
<!-- Generator: Adobe Illustrator 19.0.0, SVG Export Plug-In . SVG Version: 6.00 Build 0)  -->
<svg version="1.1" id="Layer_1" xmlns="http://www.w3.org/2000/svg" xmlns:xlink="http://www.w3.org/1999/xlink" x="0px" y="0px"
	 viewBox="0 0 512 512" style="enable-background:new 0 0 512 512;" xml:space="preserve">
<g>
	<polygon style="fill:#F39624;" points="469.696,389.859 469.696,329.749 256,329.749 235.085,359.804 256,389.859 	"/>
	<polygon style="fill:#F39624;" points="469.696,122.139 256,122.139 235.085,152.194 256,182.249 469.696,182.249 	"/>
</g>
<g>
	<rect x="42.304" y="329.748" style="fill:#F7C02D;" width="213.692" height="60.113"/>
	<rect x="42.304" y="122.137" style="fill:#F7C02D;" width="213.692" height="60.113"/>
</g>
<path style="fill:#C75214;" d="M42.304,38.75L21.389,255.999l20.915,217.249c23.364,0,42.304-18.94,42.304-42.304V81.053
	C84.606,57.69,65.667,38.75,42.304,38.75z"/>
<path style="fill:#E37E31;" d="M42.304,38.75C18.94,38.75,0,57.69,0,81.053v349.892c0,23.364,18.94,42.304,42.304,42.304l0,0V38.75
	L42.304,38.75z"/>
<path style="fill:#C75214;" d="M184.768,38.75l-20.915,217.249l20.915,217.249c23.364,0,42.304-18.94,42.304-42.304V81.053
	C227.071,57.69,208.131,38.75,184.768,38.75z"/>
<path style="fill:#E37E31;" d="M184.768,38.75c-23.364,0-42.304,18.94-42.304,42.304v349.892c0,23.364,18.94,42.304,42.304,42.304
	l0,0L184.768,38.75L184.768,38.75z"/>
<path style="fill:#C75214;" d="M327.232,38.75l-20.915,217.249l20.915,217.249c23.364,0,42.304-18.94,42.304-42.304V81.053
	C369.535,57.69,350.596,38.75,327.232,38.75z"/>
<path style="fill:#E37E31;" d="M327.232,38.75c-23.364,0-42.304,18.94-42.304,42.304v349.892c0,23.364,18.94,42.304,42.304,42.304
	l0,0V38.75L327.232,38.75z"/>
<path style="fill:#C75214;" d="M469.696,38.75l-20.915,217.249l20.915,217.249c23.364,0,42.304-18.94,42.304-42.304V81.053
	C512,57.69,493.06,38.75,469.696,38.75z"/>
<path style="fill:#E37E31;" d="M469.696,38.75c-23.364,0-42.304,18.94-42.304,42.304v349.892c0,23.364,18.94,42.304,42.304,42.304
	l0,0V38.75L469.696,38.75z"/>
<g>
</g>
<g>
</g>
<g>
</g>
<g>
</g>
<g>
</g>
<g>
</g>
<g>
</g>
<g>
</g>
<g>
</g>
<g>
</g>
<g>
</g>
<g>
</g>
<g>
</g>
<g>
</g>
<g>
</g>
</svg>
